<svg viewBox="0 0 16 16">
  <path d="M106.902558,1.49963379 C108.337086,0.671408917 110.655823,0.667314453 112.097442,1.49963379 L135.048384,14.7503662 C136.482911,15.5785911 137.645826,17.5846289 137.645826,19.2492676 L137.645826,45.7507324 C137.645826,47.4071822 136.490003,49.4173145 135.048384,50.2496338 L112.097442,63.5003662 C110.662914,64.3285911 108.344177,64.3326855 106.902558,63.5003662 L83.9516163,50.2496338 C82.5170887,49.4214089 81.3541744,47.4153711 81.3541744,45.7507324 L81.3541744,19.2492676 C81.3541744,17.5928178 82.5099969,15.5826855 83.9516163,14.7503662 L106.902558,1.49963379 Z M105.765217,49.3196729 L105.765217,32.998726 L102.396245,32.998726 L102.396245,27.3742179 L105.765217,27.3742179 L105.765217,23.9972835 C105.765217,19.4088187 107.667549,16.6803271 113.0723,16.6803271 L117.571907,16.6803271 L117.571907,22.3054722 L114.759334,22.3054722 C112.655398,22.3054722 112.516219,23.091502 112.516219,24.5584604 L112.508575,27.3735809 L117.603755,27.3735809 L117.007545,32.9980891 L112.508575,32.9980891 L112.508575,49.3196729 L105.765217,49.3196729 Z" id="Facebook" fill="#3B5998"></path>
</svg>

